<svg width="316" height="314" viewBox="0 0 316 314" fill="none" xmlns="http://www.w3.org/2000/svg">
<path d="M201.75 221V194.75L235.5 174.75V101L169.25 139.75V179.75H148V139.75L77.9999 101V177.25L110.5 194.75V218.5L57.9999 188.5V63.5L156.75 119.75L258 63.5V188.5L201.75 221Z" fill="black" stroke="black"/>
<path d="M238 46L215.5 62.25L169.25 33.5V72.25H146.75V33.5L95.5 62.25L71.75 49.75L159.25 1L238 46Z" fill="black" stroke="black"/>
<path d="M14.64 299V262.22H0.24V257H34.98V262.22H20.58V299H14.64ZM58.1531 299.48C52.6331 299.48 48.2931 297.9 45.1331 294.74C41.9731 291.58 40.3931 286.96 40.3931 280.88V257H46.3931V280.64C46.3931 285.32 47.4131 288.74 49.4531 290.9C51.5331 293.06 54.4531 294.14 58.2131 294.14C62.0131 294.14 64.9331 293.06 66.9731 290.9C69.0531 288.74 70.0931 285.32 70.0931 280.64V257H75.9131V280.88C75.9131 286.96 74.3331 291.58 71.1731 294.74C68.0531 297.9 63.7131 299.48 58.1531 299.48ZM88.2141 299V257H104.594C108.274 257 111.414 257.58 114.014 258.74C116.614 259.9 118.614 261.58 120.014 263.78C121.414 265.98 122.114 268.6 122.114 271.64C122.114 274.68 121.414 277.3 120.014 279.5C118.614 281.66 116.614 283.32 114.014 284.48C111.414 285.64 108.274 286.22 104.594 286.22H91.5141L94.2141 283.46V299H88.2141ZM116.294 299L105.614 283.76H112.034L122.834 299H116.294ZM94.2141 284.06L91.5141 281.12H104.414C108.254 281.12 111.154 280.3 113.114 278.66C115.114 276.98 116.114 274.64 116.114 271.64C116.114 268.64 115.114 266.32 113.114 264.68C111.154 263.04 108.254 262.22 104.414 262.22H91.5141L94.2141 259.22V284.06ZM137.088 288.86L136.788 281.54L160.608 257H167.448L149.028 276.44L145.668 280.16L137.088 288.86ZM131.808 299V257H137.808V299H131.808ZM161.568 299L144.348 278.96L148.368 274.52L168.588 299H161.568ZM174.933 299V257H179.853L198.693 288.74H196.053L214.653 257H219.573L219.633 299H213.873L213.813 266.06H215.193L198.633 293.9H195.873L179.193 266.06H180.693V299H174.933ZM237.698 275.12H259.298V280.22H237.698V275.12ZM238.238 293.78H262.718V299H232.238V257H261.878V262.22H238.238V293.78ZM272.433 299V257H290.133C294.613 257 298.553 257.88 301.953 259.64C305.393 261.4 308.053 263.86 309.933 267.02C311.853 270.18 312.813 273.84 312.813 278C312.813 282.16 311.853 285.82 309.933 288.98C308.053 292.14 305.393 294.6 301.953 296.36C298.553 298.12 294.613 299 290.133 299H272.433ZM278.433 293.78H289.773C293.253 293.78 296.253 293.12 298.773 291.8C301.333 290.48 303.313 288.64 304.713 286.28C306.113 283.88 306.813 281.12 306.813 278C306.813 274.84 306.113 272.08 304.713 269.72C303.313 267.36 301.333 265.52 298.773 264.2C296.253 262.88 293.253 262.22 289.773 262.22H278.433V293.78Z" fill="black"/>
</svg>
