<svg width="33" height="28" viewBox="0 0 33 28" fill="none" xmlns="http://www.w3.org/2000/svg">
<path d="M24.8933 26.6C24.8933 23.7723 21.0728 21.48 16.36 21.48C11.6472 21.48 7.82667 23.7723 7.82667 26.6M31.72 21.4806C31.72 19.3811 29.6138 17.5767 26.6 16.7867M1 21.4806C1 19.3811 3.10619 17.5767 6.12 16.7867M26.6 9.93629C27.6475 8.99878 28.3067 7.63637 28.3067 6.12C28.3067 3.2923 26.0144 1 23.1867 1C21.8753 1 20.6792 1.49298 19.7733 2.30371M6.12 9.93629C5.07253 8.99878 4.41333 7.63637 4.41333 6.12C4.41333 3.2923 6.70563 1 9.53333 1C10.8447 1 12.0408 1.49298 12.9467 2.30371M16.36 16.36C13.5323 16.36 11.24 14.0677 11.24 11.24C11.24 8.4123 13.5323 6.12 16.36 6.12C19.1877 6.12 21.48 8.4123 21.48 11.24C21.48 14.0677 19.1877 16.36 16.36 16.36Z" stroke="white" stroke-width="2" stroke-linecap="round" stroke-linejoin="round"/>
</svg>
