<svg width="27" height="27" viewBox="0 0 27 27" fill="none" xmlns="http://www.w3.org/2000/svg">
<path d="M19.9213 3.01241L25.0419 3.01241C25.3814 3.01241 25.7071 3.14729 25.9471 3.38737C26.1872 3.62744 26.3221 3.95306 26.3221 4.29258V24.7753C26.3221 25.1148 26.1872 25.4404 25.9471 25.6805C25.7071 25.9205 25.3814 26.0554 25.0419 26.0554H1.99892C1.6594 26.0554 1.33378 25.9205 1.0937 25.6805C0.853624 25.4404 0.71875 25.1148 0.71875 24.7753L0.71875 4.29258C0.71875 3.95306 0.853624 3.62744 1.0937 3.38737C1.33378 3.14729 1.6594 3.01241 1.99892 3.01241H7.11959V0.45208L9.67992 0.45208V3.01241H17.3609V0.45208L19.9213 0.45208V3.01241ZM3.27908 10.6934L3.27908 23.4951H23.7618V10.6934H3.27908ZM5.83942 15.8141H12.2403V20.9348H5.83942V15.8141Z" fill="white"/>
</svg>
