<svg width="18" height="18" viewBox="0 0 18 18" fill="none" xmlns="http://www.w3.org/2000/svg">
<path d="M15.226 14.1784L17.7262 16.6773C17.8428 16.798 17.9073 16.9597 17.9059 17.1276C17.9044 17.2954 17.8371 17.4559 17.7184 17.5746C17.5997 17.6933 17.4392 17.7606 17.2714 17.7621C17.1035 17.7635 16.9418 17.699 16.8211 17.5824L14.321 15.0822C12.6872 16.482 10.5747 17.1946 8.42683 17.0704C6.27897 16.9463 4.26268 15.995 2.80105 14.4163C1.33942 12.8376 0.546074 10.7541 0.58748 8.60308C0.628886 6.45204 1.50183 4.40063 3.02313 2.87933C4.54443 1.35803 6.59583 0.485088 8.74688 0.443682C10.8979 0.402276 12.9814 1.19562 14.5601 2.65725C16.1388 4.11888 17.0901 6.13517 17.2142 8.28303C17.3384 10.4309 16.6258 12.5434 15.226 14.1772V14.1784ZM8.90713 15.8042C10.7745 15.8042 12.5654 15.0624 13.8858 13.742C15.2062 12.4216 15.948 10.6307 15.948 8.76333C15.948 6.89596 15.2062 5.10508 13.8858 3.78465C12.5654 2.46422 10.7745 1.72241 8.90713 1.72241C7.03976 1.72241 5.24887 2.46422 3.92845 3.78465C2.60802 5.10508 1.86621 6.89596 1.86621 8.76333C1.86621 10.6307 2.60802 12.4216 3.92845 13.742C5.24887 15.0624 7.03976 15.8042 8.90713 15.8042V15.8042Z" fill="#A2A3A4"/>
</svg>
